<svg width="14" height="9" viewBox="0 0 14 9" fill="none" xmlns="http://www.w3.org/2000/svg">
<path d="M10.6959 3.69638C10.6791 3.69638 10.6642 3.70197 10.6474 3.70197C10.6791 3.54916 10.6959 3.39168 10.6959 3.22955C10.6959 1.94272 9.65318 0.900024 8.36636 0.900024C7.53612 0.900024 6.81303 1.33704 6.40024 1.99117C6.14213 1.8924 5.86445 1.83276 5.57093 1.83276C4.38288 1.83276 3.4138 2.72451 3.2703 3.87343C3.00753 3.76813 2.72705 3.69638 2.42608 3.69638C1.13925 3.69638 0.0965576 4.73908 0.0965576 6.0259C0.0965576 7.31273 1.13925 8.35542 2.42608 8.35542H10.6959C11.9827 8.35542 13.0254 7.31273 13.0254 6.0259C13.0254 4.73908 11.9827 3.69638 10.6959 3.69638Z" fill="#E1E8ED"/>
</svg>
